# xmcd
#
# Track frame offsets: 
#        150
#        16480
#        35674
#        55075
#        90087
#        109390
#        125067
#        139655
#        160876
#        188095
#        223788
#        241033
#
# Disc length: 4787 seconds
#
# Revision: 0
# Processed by: cddbd v1.5.2PL0 Copyright (c) Steve Scherf et al.
# Submitted via: ExactAudioCopy v0.99pb4
#
DISCID=a012b10c
DTITLE=Cadillac Kolstad and the Flats - Cadillac Kolstad and the Flats
DYEAR=2007
DGENRE=Blues
TTITLE0=Match Box
TTITLE1=Piperliner
TTITLE2=Deep Elem Blues
TTITLE3=Mean Mistreatin' Mama
TTITLE4=Four F Ferdinand
TTITLE5=St. Louis Blues
TTITLE6=Tear It Up
TTITLE7=It's Too Short
TTITLE8=Ladies Man
TTITLE9=In the Pines
TTITLE10=Get your hands off of it ^ The Birthday Cake
TTITLE11=In The Mood
EXTD=
EXTT0=
EXTT1=
EXTT2=
EXTT3=
EXTT4=
EXTT5=
EXTT6=
EXTT7=
EXTT8=
EXTT9=
EXTT10=
EXTT11=
PLAYORDER=
